<mxfile host="Electron" modified="2023-11-22T14:06:50.699Z" agent="Mozilla/5.0 (Windows NT 10.0; Win64; x64) AppleWebKit/537.36 (KHTML, like Gecko) draw.io/22.0.3 Chrome/114.0.5735.289 Electron/25.8.4 Safari/537.36" etag="79wmW139nN6nJMiWuXqu" version="22.0.3" type="device">
  <diagram name="Страница — 1" id="PFwNMbAUwVFmRPbhzIcL">
    <mxGraphModel dx="653" dy="877" grid="1" gridSize="10" guides="1" tooltips="1" connect="1" arrows="1" fold="1" page="1" pageScale="1" pageWidth="827" pageHeight="1169" math="0" shadow="0">
      <root>
        <mxCell id="0" />
        <mxCell id="1" parent="0" />
        <mxCell id="BY-3at06x09aHT966IcW-1" value="&lt;font face=&quot;Times New Roman&quot;&gt;&lt;font style=&quot;font-size: 14px;&quot;&gt;Social Network User&lt;/font&gt;&lt;br&gt;&lt;font style=&quot;font-size: 12px;&quot;&gt;[Person]&lt;br&gt;&lt;/font&gt;&lt;/font&gt;&lt;br&gt;&lt;font face=&quot;Verdana&quot; style=&quot;font-size: 10px;&quot;&gt;A user of the social network, with personal account&lt;/font&gt;" style="rounded=1;whiteSpace=wrap;html=1;fillColor=#000066;fontColor=#ffffff;strokeColor=#001DBC;" parent="1" vertex="1">
          <mxGeometry x="1151" y="70" width="130" height="90" as="geometry" />
        </mxCell>
        <mxCell id="BY-3at06x09aHT966IcW-2" value="" style="ellipse;whiteSpace=wrap;html=1;fillColor=#000066;fontColor=#ffffff;strokeColor=#001DBC;" parent="1" vertex="1">
          <mxGeometry x="1186" y="20" width="60" height="50" as="geometry" />
        </mxCell>
        <mxCell id="BY-3at06x09aHT966IcW-5" value="&lt;font face=&quot;Verdana&quot;&gt;&lt;span style=&quot;font-size: 8px;&quot;&gt;Uses&lt;/span&gt;&lt;/font&gt;" style="endArrow=open;endSize=12;dashed=1;html=1;rounded=0;exitX=0.5;exitY=1;exitDx=0;exitDy=0;" parent="1" source="BY-3at06x09aHT966IcW-1" edge="1">
          <mxGeometry width="160" relative="1" as="geometry">
            <mxPoint x="1151" y="190" as="sourcePoint" />
            <mxPoint x="1216" y="250" as="targetPoint" />
          </mxGeometry>
        </mxCell>
        <mxCell id="BY-3at06x09aHT966IcW-6" value="&lt;font style=&quot;&quot; face=&quot;Times New Roman&quot;&gt;&lt;span style=&quot;font-size: 14px;&quot;&gt;Social Network&lt;/span&gt;&lt;br&gt;&lt;font style=&quot;font-size: 12px;&quot;&gt;[Software System]&lt;/font&gt;&lt;/font&gt;&lt;br&gt;&lt;br&gt;&lt;font style=&quot;font-size: 9px;&quot;&gt;&lt;font style=&quot;font-size: 9px;&quot; face=&quot;Verdana&quot;&gt;The platform should provide users to interact by simplifying the process of creating an account, managing friendships and exchanging messages&lt;/font&gt;.&lt;/font&gt;" style="html=1;whiteSpace=wrap;fillColor=#0050ef;fontColor=#ffffff;strokeColor=#001DBC;" parent="1" vertex="1">
          <mxGeometry x="1141" y="250" width="150" height="130" as="geometry" />
        </mxCell>
        <mxCell id="BY-3at06x09aHT966IcW-10" value="&lt;font face=&quot;Times New Roman&quot; style=&quot;font-size: 18px;&quot;&gt;&lt;b&gt;Zoom in&lt;/b&gt;&lt;/font&gt;" style="html=1;verticalAlign=bottom;startArrow=oval;startFill=1;endArrow=block;startSize=8;curved=0;rounded=0;exitX=0.999;exitY=0.598;exitDx=0;exitDy=0;strokeWidth=9;strokeColor=#00CC00;exitPerimeter=0;" parent="1" source="BY-3at06x09aHT966IcW-58" target="BY-3at06x09aHT966IcW-32" edge="1">
          <mxGeometry width="60" relative="1" as="geometry">
            <mxPoint x="1300" y="680" as="sourcePoint" />
            <mxPoint x="1700" y="1090" as="targetPoint" />
          </mxGeometry>
        </mxCell>
        <mxCell id="BY-3at06x09aHT966IcW-11" value="System Context diagram for Social Network System" style="text;html=1;align=center;verticalAlign=middle;resizable=0;points=[];autosize=1;strokeColor=none;fillColor=none;fontStyle=1;fontFamily=Times New Roman;fontSize=16;" parent="1" vertex="1">
          <mxGeometry x="1020" y="420" width="380" height="30" as="geometry" />
        </mxCell>
        <mxCell id="BY-3at06x09aHT966IcW-12" value="Level 1&lt;br style=&quot;font-size: 26px;&quot;&gt;Context" style="text;html=1;align=center;verticalAlign=middle;resizable=0;points=[];autosize=1;strokeColor=none;fillColor=none;fontSize=26;fontStyle=1;fontFamily=Times New Roman;" parent="1" vertex="1">
          <mxGeometry x="1170" y="2090" width="110" height="80" as="geometry" />
        </mxCell>
        <mxCell id="BY-3at06x09aHT966IcW-18" value="&lt;font face=&quot;Times New Roman&quot;&gt;&lt;font style=&quot;font-size: 14px;&quot;&gt;Social Network User&lt;/font&gt;&lt;br&gt;[Person]&lt;br&gt;&lt;/font&gt;&lt;br&gt;&lt;font face=&quot;Verdana&quot; style=&quot;font-size: 10px;&quot;&gt;A user of the social network, with personal account.&lt;/font&gt;" style="rounded=1;whiteSpace=wrap;html=1;fillColor=#000066;fontColor=#ffffff;strokeColor=#001DBC;" parent="1" vertex="1">
          <mxGeometry x="1764" y="400" width="130" height="90" as="geometry" />
        </mxCell>
        <mxCell id="BY-3at06x09aHT966IcW-19" value="" style="ellipse;whiteSpace=wrap;html=1;fillColor=#000066;fontColor=#ffffff;strokeColor=#001DBC;" parent="1" vertex="1">
          <mxGeometry x="1799" y="350" width="60" height="50" as="geometry" />
        </mxCell>
        <mxCell id="BY-3at06x09aHT966IcW-22" value="&lt;font face=&quot;Verdana&quot;&gt;Visits socialnetwork.site.com/using&lt;br&gt;[HTTPS]&lt;br&gt;&lt;/font&gt;" style="endArrow=open;endSize=12;dashed=1;html=1;rounded=0;exitX=0.25;exitY=1;exitDx=0;exitDy=0;entryX=0.5;entryY=0;entryDx=0;entryDy=0;fontSize=10;" parent="1" source="BY-3at06x09aHT966IcW-18" target="BY-3at06x09aHT966IcW-23" edge="1">
          <mxGeometry x="-0.3333" width="160" relative="1" as="geometry">
            <mxPoint x="1580" y="460" as="sourcePoint" />
            <mxPoint x="1659" y="640" as="targetPoint" />
            <mxPoint as="offset" />
          </mxGeometry>
        </mxCell>
        <mxCell id="BY-3at06x09aHT966IcW-23" value="&lt;font face=&quot;Times New Roman&quot; style=&quot;&quot;&gt;&lt;font style=&quot;font-size: 14px;&quot;&gt;Web Application&lt;/font&gt;&lt;br&gt;&lt;font style=&quot;font-size: 12px;&quot;&gt;[Container: C# and ASP.NET MVC]&lt;br&gt;&lt;/font&gt;&lt;/font&gt;&lt;font style=&quot;font-size: 11px;&quot;&gt;&lt;br&gt;&lt;/font&gt;&lt;font size=&quot;1&quot; face=&quot;Verdana&quot;&gt;Delivers the static content and the Social Network Application.&amp;nbsp;&lt;/font&gt;" style="html=1;whiteSpace=wrap;fillColor=#0050ef;fontColor=#ffffff;strokeColor=#001DBC;" parent="1" vertex="1">
          <mxGeometry x="1584" y="630" width="150" height="100" as="geometry" />
        </mxCell>
        <mxCell id="BY-3at06x09aHT966IcW-24" value="&lt;font face=&quot;Verdana&quot; style=&quot;font-size: 10px;&quot;&gt;Delivers to user browser&lt;br&gt;[]&lt;br&gt;&lt;/font&gt;" style="endArrow=open;endSize=12;dashed=1;html=1;rounded=0;exitX=1;exitY=0.5;exitDx=0;exitDy=0;entryX=0;entryY=0.5;entryDx=0;entryDy=0;" parent="1" source="BY-3at06x09aHT966IcW-23" target="BY-3at06x09aHT966IcW-25" edge="1">
          <mxGeometry x="0.0036" width="160" relative="1" as="geometry">
            <mxPoint x="1470" y="570" as="sourcePoint" />
            <mxPoint x="1500" y="645" as="targetPoint" />
            <mxPoint as="offset" />
          </mxGeometry>
        </mxCell>
        <mxCell id="BY-3at06x09aHT966IcW-25" value="&lt;font face=&quot;Times New Roman&quot; style=&quot;&quot;&gt;&lt;font style=&quot;font-size: 14px;&quot;&gt;Single-Page Application&lt;/font&gt;&lt;br&gt;&lt;font style=&quot;font-size: 12px;&quot;&gt;[Container: JavaScript and Angular]&lt;br&gt;&lt;/font&gt;&lt;/font&gt;&lt;br&gt;&lt;font size=&quot;1&quot; face=&quot;Verdana&quot;&gt;Provides all of the Social Network functionality to users via their web browser.&lt;/font&gt;" style="html=1;whiteSpace=wrap;fillColor=#0050ef;fontColor=#ffffff;strokeColor=#001DBC;" parent="1" vertex="1">
          <mxGeometry x="1920" y="620" width="150" height="110" as="geometry" />
        </mxCell>
        <mxCell id="BY-3at06x09aHT966IcW-26" value="&lt;font face=&quot;Times New Roman&quot;&gt;&lt;font style=&quot;font-size: 14px;&quot;&gt;API Application&lt;/font&gt;&lt;br&gt;&lt;font style=&quot;font-size: 12px;&quot;&gt;[Container:&amp;nbsp;&lt;/font&gt;&lt;/font&gt;C# and ASP.NET MVC&lt;font face=&quot;Times New Roman&quot;&gt;&lt;font style=&quot;font-size: 12px;&quot;&gt;]&lt;br&gt;&lt;/font&gt;&lt;/font&gt;&lt;br&gt;&lt;font face=&quot;Verdana&quot;&gt;&lt;font size=&quot;1&quot; style=&quot;&quot;&gt;Provides social network functionality via a API&lt;/font&gt;&lt;font style=&quot;font-size: 11px;&quot;&gt;.&lt;/font&gt;&lt;/font&gt;" style="html=1;whiteSpace=wrap;fillColor=#0050ef;fontColor=#ffffff;strokeColor=#001DBC;" parent="1" vertex="1">
          <mxGeometry x="1915" y="815" width="150" height="90" as="geometry" />
        </mxCell>
        <mxCell id="BY-3at06x09aHT966IcW-27" value="&lt;font face=&quot;Verdana&quot; style=&quot;font-size: 10px;&quot;&gt;Makes API Calls to&lt;br&gt;[JSON/HTTPS]&lt;br&gt;&lt;/font&gt;" style="endArrow=open;endSize=12;dashed=1;html=1;rounded=0;exitX=0.5;exitY=1;exitDx=0;exitDy=0;" parent="1" source="BY-3at06x09aHT966IcW-25" target="BY-3at06x09aHT966IcW-26" edge="1">
          <mxGeometry width="160" relative="1" as="geometry">
            <mxPoint x="1410" y="790" as="sourcePoint" />
            <mxPoint x="1570" y="790" as="targetPoint" />
          </mxGeometry>
        </mxCell>
        <mxCell id="BY-3at06x09aHT966IcW-29" value="&lt;font face=&quot;Verdana&quot; style=&quot;font-size: 10px;&quot;&gt;Reads from and writes to&lt;br&gt;[EF CORE]&lt;br&gt;&lt;/font&gt;" style="endArrow=open;endSize=12;dashed=1;html=1;rounded=0;exitX=0;exitY=0.5;exitDx=0;exitDy=0;entryX=0.976;entryY=0.556;entryDx=0;entryDy=0;entryPerimeter=0;" parent="1" source="BY-3at06x09aHT966IcW-26" target="BY-3at06x09aHT966IcW-45" edge="1">
          <mxGeometry x="-0.0005" width="160" relative="1" as="geometry">
            <mxPoint x="1420" y="770" as="sourcePoint" />
            <mxPoint x="1734" y="860.0000000000002" as="targetPoint" />
            <mxPoint as="offset" />
          </mxGeometry>
        </mxCell>
        <mxCell id="BY-3at06x09aHT966IcW-30" value="Container Diagram for Social Network System" style="text;html=1;align=center;verticalAlign=middle;resizable=0;points=[];autosize=1;strokeColor=none;fillColor=none;fontStyle=1;fontFamily=Times New Roman;fontSize=16;" parent="1" vertex="1">
          <mxGeometry x="1530" y="960" width="340" height="30" as="geometry" />
        </mxCell>
        <mxCell id="BY-3at06x09aHT966IcW-31" value="&lt;span style=&quot;color: rgb(0, 0, 0); font-family: &amp;quot;Times New Roman&amp;quot;; font-size: 26px; font-style: normal; font-variant-ligatures: normal; font-variant-caps: normal; font-weight: 700; letter-spacing: normal; orphans: 2; text-indent: 0px; text-transform: none; widows: 2; word-spacing: 0px; -webkit-text-stroke-width: 0px; background-color: rgb(251, 251, 251); text-decoration-thickness: initial; text-decoration-style: initial; text-decoration-color: initial; float: none; display: inline !important;&quot;&gt;Level 2&lt;/span&gt;&lt;br style=&quot;border-color: var(--border-color); color: rgb(0, 0, 0); font-family: &amp;quot;Times New Roman&amp;quot;; font-size: 26px; font-style: normal; font-variant-ligatures: normal; font-variant-caps: normal; font-weight: 700; letter-spacing: normal; orphans: 2; text-indent: 0px; text-transform: none; widows: 2; word-spacing: 0px; -webkit-text-stroke-width: 0px; background-color: rgb(251, 251, 251); text-decoration-thickness: initial; text-decoration-style: initial; text-decoration-color: initial;&quot;&gt;&lt;span style=&quot;color: rgb(0, 0, 0); font-family: &amp;quot;Times New Roman&amp;quot;; font-size: 26px; font-style: normal; font-variant-ligatures: normal; font-variant-caps: normal; font-weight: 700; letter-spacing: normal; orphans: 2; text-indent: 0px; text-transform: none; widows: 2; word-spacing: 0px; -webkit-text-stroke-width: 0px; background-color: rgb(251, 251, 251); text-decoration-thickness: initial; text-decoration-style: initial; text-decoration-color: initial; float: none; display: inline !important;&quot;&gt;Container&lt;/span&gt;" style="text;whiteSpace=wrap;html=1;align=center;" parent="1" vertex="1">
          <mxGeometry x="1769" y="2085" width="120" height="90" as="geometry" />
        </mxCell>
        <mxCell id="BY-3at06x09aHT966IcW-32" value="" style="shape=umlFrame;whiteSpace=wrap;html=1;pointerEvents=0;strokeColor=#00CC00;strokeWidth=10;fillColor=default;width=10;height=15;" parent="1" vertex="1">
          <mxGeometry x="1560" y="610" width="520" height="340" as="geometry" />
        </mxCell>
        <mxCell id="BY-3at06x09aHT966IcW-35" value="&lt;font face=&quot;Times New Roman&quot; style=&quot;font-size: 18px;&quot;&gt;&lt;b&gt;Zoom in&lt;/b&gt;&lt;/font&gt;" style="html=1;verticalAlign=bottom;startArrow=oval;startFill=1;endArrow=block;startSize=8;curved=0;rounded=0;exitX=0.997;exitY=0.732;exitDx=0;exitDy=0;strokeWidth=9;strokeColor=#FFFF00;exitPerimeter=0;" parent="1" source="BY-3at06x09aHT966IcW-32" target="BY-3at06x09aHT966IcW-52" edge="1">
          <mxGeometry width="60" relative="1" as="geometry">
            <mxPoint x="2000" y="1230" as="sourcePoint" />
            <mxPoint x="2400" y="1640" as="targetPoint" />
          </mxGeometry>
        </mxCell>
        <mxCell id="BY-3at06x09aHT966IcW-45" value="&lt;font style=&quot;border-color: var(--border-color); color: rgb(255, 255, 255);&quot; face=&quot;Times New Roman&quot;&gt;&lt;font style=&quot;border-color: var(--border-color); font-size: 14px;&quot;&gt;Database&lt;/font&gt;&lt;br style=&quot;border-color: var(--border-color);&quot;&gt;[Container: Relational Database Schema]&lt;br&gt;&lt;/font&gt;&lt;br style=&quot;border-color: var(--border-color); color: rgb(255, 255, 255);&quot;&gt;&lt;font style=&quot;border-color: var(--border-color); color: rgb(255, 255, 255); font-size: 10px;&quot; face=&quot;Verdana&quot;&gt;Stores user registration information, interactions lists, chating history, etc&amp;nbsp;&lt;/font&gt;" style="shape=datastore;whiteSpace=wrap;html=1;fillColor=#0000CC;" parent="1" vertex="1">
          <mxGeometry x="1576" y="770" width="166" height="160" as="geometry" />
        </mxCell>
        <mxCell id="BY-3at06x09aHT966IcW-46" value="&lt;font style=&quot;border-color: var(--border-color); color: rgb(255, 255, 255);&quot; face=&quot;Times New Roman&quot;&gt;&lt;font style=&quot;border-color: var(--border-color); font-size: 14px;&quot;&gt;Database&lt;/font&gt;&lt;br style=&quot;border-color: var(--border-color);&quot;&gt;[Container: SQL Server]&lt;/font&gt;&lt;br style=&quot;border-color: var(--border-color); color: rgb(255, 255, 255);&quot;&gt;&lt;font style=&quot;border-color: var(--border-color); color: rgb(255, 255, 255); font-size: 10px;&quot; face=&quot;Verdana&quot;&gt;Stores user registration information, interactions, chating history, etc&amp;nbsp;&lt;/font&gt;" style="shape=datastore;whiteSpace=wrap;html=1;fillColor=#0000CC;" parent="1" vertex="1">
          <mxGeometry x="2440" y="1320" width="166" height="155" as="geometry" />
        </mxCell>
        <mxCell id="BY-3at06x09aHT966IcW-52" value="" style="shape=umlFrame;whiteSpace=wrap;html=1;pointerEvents=0;strokeColor=#FFFF00;strokeWidth=10;fillColor=default;width=10;height=15;" parent="1" vertex="1">
          <mxGeometry x="2205" y="980" width="665" height="530" as="geometry" />
        </mxCell>
        <mxCell id="BY-3at06x09aHT966IcW-53" value="&lt;span style=&quot;border-color: var(--border-color); color: rgb(0, 0, 0); font-style: normal; font-variant-ligatures: normal; font-variant-caps: normal; letter-spacing: normal; orphans: 2; text-indent: 0px; text-transform: none; widows: 2; word-spacing: 0px; -webkit-text-stroke-width: 0px; text-decoration-thickness: initial; text-decoration-style: initial; text-decoration-color: initial; font-family: &amp;quot;Times New Roman&amp;quot;; font-size: 26px; font-weight: 700; background-color: rgb(251, 251, 251); float: none; display: inline !important;&quot;&gt;Level 3&lt;/span&gt;&lt;br style=&quot;border-color: var(--border-color); color: rgb(0, 0, 0); font-style: normal; font-variant-ligatures: normal; font-variant-caps: normal; letter-spacing: normal; orphans: 2; text-indent: 0px; text-transform: none; widows: 2; word-spacing: 0px; -webkit-text-stroke-width: 0px; text-decoration-thickness: initial; text-decoration-style: initial; text-decoration-color: initial; font-family: &amp;quot;Times New Roman&amp;quot;; font-size: 26px; font-weight: 700; background-color: rgb(251, 251, 251);&quot;&gt;&lt;span style=&quot;border-color: var(--border-color); color: rgb(0, 0, 0); font-style: normal; font-variant-ligatures: normal; font-variant-caps: normal; letter-spacing: normal; orphans: 2; text-indent: 0px; text-transform: none; widows: 2; word-spacing: 0px; -webkit-text-stroke-width: 0px; text-decoration-thickness: initial; text-decoration-style: initial; text-decoration-color: initial; font-family: &amp;quot;Times New Roman&amp;quot;; font-size: 26px; font-weight: 700; background-color: rgb(251, 251, 251); float: none; display: inline !important;&quot;&gt;Components&lt;/span&gt;" style="text;whiteSpace=wrap;html=1;align=center;" parent="1" vertex="1">
          <mxGeometry x="2486" y="2080" width="150" height="90" as="geometry" />
        </mxCell>
        <mxCell id="BY-3at06x09aHT966IcW-56" value="" style="shape=umlFrame;whiteSpace=wrap;html=1;pointerEvents=0;strokeColor=#33FFFF;strokeWidth=10;fillColor=default;width=10;height=15;" parent="1" vertex="1">
          <mxGeometry x="3190" y="1222.5" width="1460" height="687.5" as="geometry" />
        </mxCell>
        <mxCell id="BY-3at06x09aHT966IcW-57" value="&lt;span style=&quot;border-color: var(--border-color); color: rgb(0, 0, 0); font-style: normal; font-variant-ligatures: normal; font-variant-caps: normal; letter-spacing: normal; orphans: 2; text-indent: 0px; text-transform: none; widows: 2; word-spacing: 0px; -webkit-text-stroke-width: 0px; text-decoration-thickness: initial; text-decoration-style: initial; text-decoration-color: initial; font-family: &amp;quot;Times New Roman&amp;quot;; font-size: 26px; font-weight: 700; background-color: rgb(251, 251, 251); float: none; display: inline !important;&quot;&gt;Level 4&lt;/span&gt;&lt;br style=&quot;border-color: var(--border-color); color: rgb(0, 0, 0); font-style: normal; font-variant-ligatures: normal; font-variant-caps: normal; letter-spacing: normal; orphans: 2; text-indent: 0px; text-transform: none; widows: 2; word-spacing: 0px; -webkit-text-stroke-width: 0px; text-decoration-thickness: initial; text-decoration-style: initial; text-decoration-color: initial; font-family: &amp;quot;Times New Roman&amp;quot;; font-size: 26px; font-weight: 700; background-color: rgb(251, 251, 251);&quot;&gt;&lt;span style=&quot;border-color: var(--border-color); color: rgb(0, 0, 0); font-style: normal; font-variant-ligatures: normal; font-variant-caps: normal; letter-spacing: normal; orphans: 2; text-indent: 0px; text-transform: none; widows: 2; word-spacing: 0px; -webkit-text-stroke-width: 0px; text-decoration-thickness: initial; text-decoration-style: initial; text-decoration-color: initial; font-family: &amp;quot;Times New Roman&amp;quot;; font-size: 26px; font-weight: 700; background-color: rgb(251, 251, 251); float: none; display: inline !important;&quot;&gt;Code&lt;/span&gt;" style="text;whiteSpace=wrap;html=1;align=center;" parent="1" vertex="1">
          <mxGeometry x="3975" y="2090" width="150" height="90" as="geometry" />
        </mxCell>
        <mxCell id="BY-3at06x09aHT966IcW-58" value="" style="shape=umlFrame;whiteSpace=wrap;html=1;pointerEvents=0;strokeColor=#00CC00;strokeWidth=10;fillColor=default;width=10;height=15;" parent="1" vertex="1">
          <mxGeometry x="1131" y="255" width="170" height="130" as="geometry" />
        </mxCell>
        <mxCell id="BY-3at06x09aHT966IcW-59" value="Component Diagram for Social Network System - API Application" style="text;html=1;align=center;verticalAlign=middle;resizable=0;points=[];autosize=1;strokeColor=none;fillColor=none;fontStyle=1;fontSize=16;" parent="1" vertex="1">
          <mxGeometry x="2140" y="1724" width="520" height="30" as="geometry" />
        </mxCell>
        <mxCell id="XlqtxUfu8w-gP25Wh8O6-4" value="&lt;font face=&quot;Verdana&quot;&gt;Views friendships, &lt;br&gt;makes some operations, using&lt;br&gt;[]&lt;br&gt;&lt;/font&gt;" style="endArrow=open;endSize=12;dashed=1;html=1;rounded=0;exitX=0.75;exitY=1;exitDx=0;exitDy=0;entryX=0.569;entryY=-0.005;entryDx=0;entryDy=0;fontSize=10;entryPerimeter=0;" parent="1" source="BY-3at06x09aHT966IcW-18" target="BY-3at06x09aHT966IcW-25" edge="1">
          <mxGeometry x="0.0203" y="33" width="160" relative="1" as="geometry">
            <mxPoint x="1815" y="500" as="sourcePoint" />
            <mxPoint x="1669" y="640" as="targetPoint" />
            <mxPoint y="1" as="offset" />
          </mxGeometry>
        </mxCell>
        <mxCell id="XlqtxUfu8w-gP25Wh8O6-8" value="UserController" style="rounded=0;whiteSpace=wrap;html=1;" parent="1" vertex="1">
          <mxGeometry x="3990" y="1410" width="120" height="60" as="geometry" />
        </mxCell>
        <mxCell id="XlqtxUfu8w-gP25Wh8O6-10" value="FriendShipController" style="rounded=0;whiteSpace=wrap;html=1;" parent="1" vertex="1">
          <mxGeometry x="4260" y="1400" width="120" height="60" as="geometry" />
        </mxCell>
        <mxCell id="XlqtxUfu8w-gP25Wh8O6-11" value="MessageController" style="rounded=0;whiteSpace=wrap;html=1;" parent="1" vertex="1">
          <mxGeometry x="4480" y="1400" width="120" height="60" as="geometry" />
        </mxCell>
        <mxCell id="XlqtxUfu8w-gP25Wh8O6-13" value="" style="endArrow=diamondThin;endFill=1;endSize=24;html=1;rounded=0;entryX=0.5;entryY=1;entryDx=0;entryDy=0;exitX=0.5;exitY=0;exitDx=0;exitDy=0;" parent="1" source="XlqtxUfu8w-gP25Wh8O6-14" target="XlqtxUfu8w-gP25Wh8O6-8" edge="1">
          <mxGeometry width="160" relative="1" as="geometry">
            <mxPoint x="3878" y="1460" as="sourcePoint" />
            <mxPoint x="4088" y="1474.8672566371683" as="targetPoint" />
          </mxGeometry>
        </mxCell>
        <mxCell id="XlqtxUfu8w-gP25Wh8O6-14" value="&amp;lt;&amp;lt;interface&amp;gt;&amp;gt;&lt;br&gt;IUserService" style="rounded=0;whiteSpace=wrap;html=1;" parent="1" vertex="1">
          <mxGeometry x="3990" y="1564" width="120" height="60" as="geometry" />
        </mxCell>
        <mxCell id="XlqtxUfu8w-gP25Wh8O6-26" style="edgeStyle=orthogonalEdgeStyle;rounded=0;orthogonalLoop=1;jettySize=auto;html=1;exitX=0.5;exitY=0;exitDx=0;exitDy=0;entryX=0.25;entryY=1;entryDx=0;entryDy=0;" parent="1" source="XlqtxUfu8w-gP25Wh8O6-15" target="XlqtxUfu8w-gP25Wh8O6-14" edge="1">
          <mxGeometry relative="1" as="geometry" />
        </mxCell>
        <mxCell id="fb62TcCgNwMtaNHPfWte-15" style="edgeStyle=orthogonalEdgeStyle;rounded=0;orthogonalLoop=1;jettySize=auto;html=1;exitX=0.5;exitY=1;exitDx=0;exitDy=0;entryX=1;entryY=0.5;entryDx=0;entryDy=0;dashed=1;" parent="1" source="XlqtxUfu8w-gP25Wh8O6-15" target="XlqtxUfu8w-gP25Wh8O6-61" edge="1">
          <mxGeometry relative="1" as="geometry" />
        </mxCell>
        <mxCell id="XlqtxUfu8w-gP25Wh8O6-15" value="LoginService" style="rounded=0;whiteSpace=wrap;html=1;" parent="1" vertex="1">
          <mxGeometry x="3900" y="1680" width="120" height="40" as="geometry" />
        </mxCell>
        <mxCell id="XlqtxUfu8w-gP25Wh8O6-27" style="edgeStyle=orthogonalEdgeStyle;rounded=0;orthogonalLoop=1;jettySize=auto;html=1;exitX=0.5;exitY=0;exitDx=0;exitDy=0;entryX=0.75;entryY=1;entryDx=0;entryDy=0;" parent="1" source="XlqtxUfu8w-gP25Wh8O6-21" target="XlqtxUfu8w-gP25Wh8O6-14" edge="1">
          <mxGeometry relative="1" as="geometry" />
        </mxCell>
        <mxCell id="fb62TcCgNwMtaNHPfWte-16" style="edgeStyle=orthogonalEdgeStyle;rounded=0;orthogonalLoop=1;jettySize=auto;html=1;exitX=0.5;exitY=1;exitDx=0;exitDy=0;entryX=1;entryY=0.5;entryDx=0;entryDy=0;dashed=1;" parent="1" source="XlqtxUfu8w-gP25Wh8O6-21" target="XlqtxUfu8w-gP25Wh8O6-61" edge="1">
          <mxGeometry relative="1" as="geometry">
            <Array as="points">
              <mxPoint x="4140" y="1720" />
              <mxPoint x="4140" y="1763" />
              <mxPoint x="3840" y="1763" />
              <mxPoint x="3840" y="1648" />
            </Array>
          </mxGeometry>
        </mxCell>
        <mxCell id="XlqtxUfu8w-gP25Wh8O6-21" value="RegisterService" style="rounded=0;whiteSpace=wrap;html=1;" parent="1" vertex="1">
          <mxGeometry x="4090" y="1680" width="120" height="40" as="geometry" />
        </mxCell>
        <mxCell id="XlqtxUfu8w-gP25Wh8O6-39" value="&amp;lt;&amp;lt;interface&amp;gt;&amp;gt;&lt;br&gt;IFriendShipService" style="rounded=0;whiteSpace=wrap;html=1;" parent="1" vertex="1">
          <mxGeometry x="4260" y="1584" width="120" height="60" as="geometry" />
        </mxCell>
        <mxCell id="XlqtxUfu8w-gP25Wh8O6-40" value="" style="endArrow=diamondThin;endFill=1;endSize=24;html=1;rounded=0;entryX=0.5;entryY=1;entryDx=0;entryDy=0;exitX=0.5;exitY=0;exitDx=0;exitDy=0;" parent="1" source="XlqtxUfu8w-gP25Wh8O6-39" target="XlqtxUfu8w-gP25Wh8O6-10" edge="1">
          <mxGeometry width="160" relative="1" as="geometry">
            <mxPoint x="4330" y="1594" as="sourcePoint" />
            <mxPoint x="4330" y="1470" as="targetPoint" />
          </mxGeometry>
        </mxCell>
        <mxCell id="XlqtxUfu8w-gP25Wh8O6-46" style="edgeStyle=orthogonalEdgeStyle;rounded=0;orthogonalLoop=1;jettySize=auto;html=1;exitX=0.5;exitY=0;exitDx=0;exitDy=0;entryX=0.5;entryY=1;entryDx=0;entryDy=0;" parent="1" source="XlqtxUfu8w-gP25Wh8O6-41" target="XlqtxUfu8w-gP25Wh8O6-39" edge="1">
          <mxGeometry relative="1" as="geometry" />
        </mxCell>
        <mxCell id="fb62TcCgNwMtaNHPfWte-17" style="edgeStyle=orthogonalEdgeStyle;rounded=0;orthogonalLoop=1;jettySize=auto;html=1;exitX=0.5;exitY=1;exitDx=0;exitDy=0;entryX=0.999;entryY=0.633;entryDx=0;entryDy=0;dashed=1;entryPerimeter=0;" parent="1" source="XlqtxUfu8w-gP25Wh8O6-41" target="XlqtxUfu8w-gP25Wh8O6-61" edge="1">
          <mxGeometry relative="1" as="geometry">
            <Array as="points">
              <mxPoint x="4320" y="1763" />
              <mxPoint x="3840" y="1763" />
              <mxPoint x="3840" y="1650" />
              <mxPoint x="3823" y="1650" />
              <mxPoint x="3823" y="1654" />
            </Array>
          </mxGeometry>
        </mxCell>
        <mxCell id="XlqtxUfu8w-gP25Wh8O6-41" value="FriendShipService" style="rounded=0;whiteSpace=wrap;html=1;" parent="1" vertex="1">
          <mxGeometry x="4260" y="1680" width="120" height="40" as="geometry" />
        </mxCell>
        <mxCell id="XlqtxUfu8w-gP25Wh8O6-47" value="" style="endArrow=diamondThin;endFill=1;endSize=24;html=1;rounded=0;entryX=0.5;entryY=1;entryDx=0;entryDy=0;exitX=0.5;exitY=0;exitDx=0;exitDy=0;exitPerimeter=0;" parent="1" source="XlqtxUfu8w-gP25Wh8O6-48" target="XlqtxUfu8w-gP25Wh8O6-11" edge="1">
          <mxGeometry width="160" relative="1" as="geometry">
            <mxPoint x="4539.29" y="1594" as="sourcePoint" />
            <mxPoint x="4539.29" y="1470" as="targetPoint" />
          </mxGeometry>
        </mxCell>
        <mxCell id="XlqtxUfu8w-gP25Wh8O6-48" value="&amp;lt;&amp;lt;interface&amp;gt;&amp;gt;&lt;br&gt;IMessageService" style="rounded=0;whiteSpace=wrap;html=1;" parent="1" vertex="1">
          <mxGeometry x="4480" y="1584" width="120" height="60" as="geometry" />
        </mxCell>
        <mxCell id="XlqtxUfu8w-gP25Wh8O6-50" style="edgeStyle=orthogonalEdgeStyle;rounded=0;orthogonalLoop=1;jettySize=auto;html=1;exitX=0.5;exitY=0;exitDx=0;exitDy=0;entryX=0.5;entryY=1;entryDx=0;entryDy=0;" parent="1" source="XlqtxUfu8w-gP25Wh8O6-49" target="XlqtxUfu8w-gP25Wh8O6-48" edge="1">
          <mxGeometry relative="1" as="geometry" />
        </mxCell>
        <mxCell id="fb62TcCgNwMtaNHPfWte-18" style="edgeStyle=orthogonalEdgeStyle;rounded=0;orthogonalLoop=1;jettySize=auto;html=1;exitX=0.5;exitY=1;exitDx=0;exitDy=0;entryX=1;entryY=0.5;entryDx=0;entryDy=0;dashed=1;" parent="1" source="XlqtxUfu8w-gP25Wh8O6-49" edge="1">
          <mxGeometry relative="1" as="geometry">
            <mxPoint x="4765" y="1755" as="sourcePoint" />
            <mxPoint x="3780" y="1660" as="targetPoint" />
            <Array as="points">
              <mxPoint x="4540" y="1760" />
              <mxPoint x="3840" y="1760" />
              <mxPoint x="3840" y="1660" />
            </Array>
          </mxGeometry>
        </mxCell>
        <mxCell id="XlqtxUfu8w-gP25Wh8O6-49" value="MessageService" style="rounded=0;whiteSpace=wrap;html=1;" parent="1" vertex="1">
          <mxGeometry x="4480" y="1680" width="120" height="40" as="geometry" />
        </mxCell>
        <mxCell id="XlqtxUfu8w-gP25Wh8O6-58" value="BLL" style="shape=umlFrame;whiteSpace=wrap;html=1;pointerEvents=0;width=80;height=30;" parent="1" vertex="1">
          <mxGeometry x="3880" y="1550" width="760" height="237.5" as="geometry" />
        </mxCell>
        <mxCell id="XlqtxUfu8w-gP25Wh8O6-71" style="edgeStyle=orthogonalEdgeStyle;rounded=0;orthogonalLoop=1;jettySize=auto;html=1;exitX=0.5;exitY=1;exitDx=0;exitDy=0;entryX=0;entryY=0.5;entryDx=0;entryDy=0;" parent="1" source="XlqtxUfu8w-gP25Wh8O6-59" target="XlqtxUfu8w-gP25Wh8O6-60" edge="1">
          <mxGeometry relative="1" as="geometry" />
        </mxCell>
        <mxCell id="XlqtxUfu8w-gP25Wh8O6-59" value="Application" style="html=1;whiteSpace=wrap;" parent="1" vertex="1">
          <mxGeometry x="3450" y="1752.5" width="110" height="50" as="geometry" />
        </mxCell>
        <mxCell id="XlqtxUfu8w-gP25Wh8O6-62" style="edgeStyle=orthogonalEdgeStyle;rounded=0;orthogonalLoop=1;jettySize=auto;html=1;exitX=0.5;exitY=0;exitDx=0;exitDy=0;entryX=0.5;entryY=1;entryDx=0;entryDy=0;" parent="1" source="XlqtxUfu8w-gP25Wh8O6-60" target="XlqtxUfu8w-gP25Wh8O6-61" edge="1">
          <mxGeometry relative="1" as="geometry" />
        </mxCell>
        <mxCell id="XlqtxUfu8w-gP25Wh8O6-60" value="RepositoryBase&amp;lt;T&amp;gt;" style="html=1;whiteSpace=wrap;" parent="1" vertex="1">
          <mxGeometry x="3660" y="1802.5" width="120" height="50" as="geometry" />
        </mxCell>
        <mxCell id="XlqtxUfu8w-gP25Wh8O6-69" style="edgeStyle=orthogonalEdgeStyle;rounded=0;orthogonalLoop=1;jettySize=auto;html=1;exitX=0.5;exitY=0;exitDx=0;exitDy=0;entryX=0.5;entryY=0;entryDx=0;entryDy=0;" parent="1" source="XlqtxUfu8w-gP25Wh8O6-61" target="XlqtxUfu8w-gP25Wh8O6-70" edge="1">
          <mxGeometry relative="1" as="geometry">
            <mxPoint x="3689.6470588235293" y="1452.5" as="targetPoint" />
          </mxGeometry>
        </mxCell>
        <mxCell id="XlqtxUfu8w-gP25Wh8O6-61" value="&amp;lt;&amp;lt;interface&amp;gt;&amp;gt;&lt;br&gt;IRepositoryBase&amp;lt;T&amp;gt;" style="html=1;whiteSpace=wrap;" parent="1" vertex="1">
          <mxGeometry x="3660" y="1622.5" width="120" height="50" as="geometry" />
        </mxCell>
        <mxCell id="XlqtxUfu8w-gP25Wh8O6-70" value="Entity Base" style="html=1;whiteSpace=wrap;" parent="1" vertex="1">
          <mxGeometry x="3450" y="1276.5" width="120" height="50" as="geometry" />
        </mxCell>
        <mxCell id="XlqtxUfu8w-gP25Wh8O6-76" style="edgeStyle=orthogonalEdgeStyle;rounded=0;orthogonalLoop=1;jettySize=auto;html=1;exitX=0.5;exitY=0;exitDx=0;exitDy=0;entryX=0.5;entryY=1;entryDx=0;entryDy=0;" parent="1" source="XlqtxUfu8w-gP25Wh8O6-72" target="XlqtxUfu8w-gP25Wh8O6-70" edge="1">
          <mxGeometry relative="1" as="geometry" />
        </mxCell>
        <mxCell id="fb62TcCgNwMtaNHPfWte-19" style="edgeStyle=orthogonalEdgeStyle;rounded=0;orthogonalLoop=1;jettySize=auto;html=1;exitX=0.25;exitY=1;exitDx=0;exitDy=0;entryX=0.25;entryY=0;entryDx=0;entryDy=0;" parent="1" source="XlqtxUfu8w-gP25Wh8O6-72" target="XlqtxUfu8w-gP25Wh8O6-78" edge="1">
          <mxGeometry relative="1" as="geometry" />
        </mxCell>
        <mxCell id="XlqtxUfu8w-gP25Wh8O6-72" value="User" style="html=1;whiteSpace=wrap;" parent="1" vertex="1">
          <mxGeometry x="3460" y="1360" width="110" height="50" as="geometry" />
        </mxCell>
        <mxCell id="XlqtxUfu8w-gP25Wh8O6-91" style="edgeStyle=orthogonalEdgeStyle;rounded=0;orthogonalLoop=1;jettySize=auto;html=1;exitX=0;exitY=0.5;exitDx=0;exitDy=0;entryX=0;entryY=0.5;entryDx=0;entryDy=0;" parent="1" source="XlqtxUfu8w-gP25Wh8O6-73" target="XlqtxUfu8w-gP25Wh8O6-59" edge="1">
          <mxGeometry relative="1" as="geometry" />
        </mxCell>
        <mxCell id="XlqtxUfu8w-gP25Wh8O6-73" value="FriendShips" style="html=1;whiteSpace=wrap;" parent="1" vertex="1">
          <mxGeometry x="3290" y="1456.5" width="110" height="50" as="geometry" />
        </mxCell>
        <mxCell id="XlqtxUfu8w-gP25Wh8O6-77" style="edgeStyle=orthogonalEdgeStyle;rounded=0;orthogonalLoop=1;jettySize=auto;html=1;exitX=0.5;exitY=1;exitDx=0;exitDy=0;entryX=0.5;entryY=0;entryDx=0;entryDy=0;" parent="1" source="XlqtxUfu8w-gP25Wh8O6-72" target="XlqtxUfu8w-gP25Wh8O6-74" edge="1">
          <mxGeometry relative="1" as="geometry">
            <Array as="points">
              <mxPoint x="3550" y="1410" />
              <mxPoint x="3550" y="1433" />
              <mxPoint x="3605" y="1433" />
            </Array>
          </mxGeometry>
        </mxCell>
        <mxCell id="XlqtxUfu8w-gP25Wh8O6-79" style="edgeStyle=orthogonalEdgeStyle;rounded=0;orthogonalLoop=1;jettySize=auto;html=1;entryX=0.5;entryY=0;entryDx=0;entryDy=0;exitX=0;exitY=0.5;exitDx=0;exitDy=0;" parent="1" source="XlqtxUfu8w-gP25Wh8O6-72" target="XlqtxUfu8w-gP25Wh8O6-73" edge="1">
          <mxGeometry relative="1" as="geometry">
            <mxPoint x="3492.5714285714294" y="1310" as="sourcePoint" />
            <mxPoint x="3320" y="1510" as="targetPoint" />
          </mxGeometry>
        </mxCell>
        <mxCell id="XlqtxUfu8w-gP25Wh8O6-80" style="edgeStyle=orthogonalEdgeStyle;rounded=0;orthogonalLoop=1;jettySize=auto;html=1;exitX=0.5;exitY=1;exitDx=0;exitDy=0;entryX=1;entryY=0.5;entryDx=0;entryDy=0;" parent="1" source="XlqtxUfu8w-gP25Wh8O6-74" target="XlqtxUfu8w-gP25Wh8O6-78" edge="1">
          <mxGeometry relative="1" as="geometry">
            <mxPoint x="3570" y="1411.5" as="targetPoint" />
            <Array as="points" />
          </mxGeometry>
        </mxCell>
        <mxCell id="XlqtxUfu8w-gP25Wh8O6-74" value="Dialogs" style="html=1;whiteSpace=wrap;" parent="1" vertex="1">
          <mxGeometry x="3550" y="1456.5" width="110" height="50" as="geometry" />
        </mxCell>
        <mxCell id="XlqtxUfu8w-gP25Wh8O6-78" value="Message" style="html=1;whiteSpace=wrap;" parent="1" vertex="1">
          <mxGeometry x="3460" y="1572.5" width="110" height="50" as="geometry" />
        </mxCell>
        <mxCell id="XlqtxUfu8w-gP25Wh8O6-84" style="edgeStyle=orthogonalEdgeStyle;rounded=0;orthogonalLoop=1;jettySize=auto;html=1;exitX=0.5;exitY=1;exitDx=0;exitDy=0;entryX=0.598;entryY=0.035;entryDx=0;entryDy=0;entryPerimeter=0;" parent="1" source="XlqtxUfu8w-gP25Wh8O6-78" target="XlqtxUfu8w-gP25Wh8O6-59" edge="1">
          <mxGeometry relative="1" as="geometry">
            <Array as="points" />
          </mxGeometry>
        </mxCell>
        <mxCell id="XlqtxUfu8w-gP25Wh8O6-86" value="Data Access Layer" style="shape=umlFrame;whiteSpace=wrap;html=1;pointerEvents=0;width=80;height=30;" parent="1" vertex="1">
          <mxGeometry x="3220" y="1240" width="605" height="650" as="geometry" />
        </mxCell>
        <mxCell id="XlqtxUfu8w-gP25Wh8O6-93" value="&lt;font face=&quot;Times New Roman&quot; style=&quot;font-size: 18px;&quot;&gt;&lt;b&gt;Zoom in&lt;/b&gt;&lt;/font&gt;" style="html=1;verticalAlign=bottom;startArrow=oval;startFill=1;endArrow=block;startSize=8;curved=0;rounded=0;exitX=1;exitY=0.5;exitDx=0;exitDy=0;strokeWidth=9;strokeColor=#00FFFF;entryX=-0.003;entryY=0.382;entryDx=0;entryDy=0;entryPerimeter=0;" parent="1" target="BY-3at06x09aHT966IcW-56" edge="1">
          <mxGeometry width="60" relative="1" as="geometry">
            <mxPoint x="2870" y="1382.5" as="sourcePoint" />
            <mxPoint x="3168" y="1682.5" as="targetPoint" />
          </mxGeometry>
        </mxCell>
        <mxCell id="XlqtxUfu8w-gP25Wh8O6-94" value="Code Diagram" style="text;html=1;align=center;verticalAlign=middle;resizable=0;points=[];autosize=1;strokeColor=none;fillColor=none;fontStyle=1;fontSize=16;" parent="1" vertex="1">
          <mxGeometry x="4430" y="1853.5" width="130" height="30" as="geometry" />
        </mxCell>
        <mxCell id="fb62TcCgNwMtaNHPfWte-5" style="edgeStyle=orthogonalEdgeStyle;rounded=0;orthogonalLoop=1;jettySize=auto;html=1;exitX=1;exitY=0.5;exitDx=0;exitDy=0;entryX=0;entryY=0.5;entryDx=0;entryDy=0;" parent="1" source="fb62TcCgNwMtaNHPfWte-4" target="fb62TcCgNwMtaNHPfWte-6" edge="1">
          <mxGeometry relative="1" as="geometry">
            <mxPoint x="2610" y="1071.5" as="targetPoint" />
            <mxPoint x="2390" y="1061.5" as="sourcePoint" />
          </mxGeometry>
        </mxCell>
        <mxCell id="fb62TcCgNwMtaNHPfWte-7" value="Uses" style="edgeLabel;html=1;align=center;verticalAlign=middle;resizable=0;points=[];" parent="fb62TcCgNwMtaNHPfWte-5" vertex="1" connectable="0">
          <mxGeometry x="-0.3258" y="-3" relative="1" as="geometry">
            <mxPoint x="13" y="-3" as="offset" />
          </mxGeometry>
        </mxCell>
        <mxCell id="fb62TcCgNwMtaNHPfWte-4" value="&lt;font face=&quot;Times New Roman&quot; style=&quot;&quot;&gt;&lt;font style=&quot;&quot;&gt;&lt;span style=&quot;font-size: 14px;&quot;&gt;Presentation Layer&lt;/span&gt;&lt;br&gt;&lt;/font&gt;&lt;/font&gt;&lt;font style=&quot;font-size: 11px;&quot;&gt;&lt;br&gt;&lt;/font&gt;&lt;font size=&quot;1&quot; face=&quot;Verdana&quot;&gt;Contaons logic for exposing functionality to users via HTTP endpoints&lt;/font&gt;" style="html=1;whiteSpace=wrap;fillColor=#0050ef;fontColor=#ffffff;strokeColor=#001DBC;" parent="1" vertex="1">
          <mxGeometry x="2250" y="1090" width="150" height="100" as="geometry" />
        </mxCell>
        <mxCell id="fb62TcCgNwMtaNHPfWte-8" style="edgeStyle=orthogonalEdgeStyle;rounded=0;orthogonalLoop=1;jettySize=auto;html=1;exitX=1;exitY=0.5;exitDx=0;exitDy=0;entryX=0.5;entryY=0;entryDx=0;entryDy=0;" parent="1" source="fb62TcCgNwMtaNHPfWte-6" target="fb62TcCgNwMtaNHPfWte-9" edge="1">
          <mxGeometry relative="1" as="geometry">
            <mxPoint x="1644.9411764705883" y="1520" as="targetPoint" />
          </mxGeometry>
        </mxCell>
        <mxCell id="fb62TcCgNwMtaNHPfWte-10" value="Uses" style="edgeLabel;html=1;align=center;verticalAlign=middle;resizable=0;points=[];" parent="fb62TcCgNwMtaNHPfWte-8" vertex="1" connectable="0">
          <mxGeometry x="-0.0455" y="-3" relative="1" as="geometry">
            <mxPoint y="1" as="offset" />
          </mxGeometry>
        </mxCell>
        <mxCell id="fb62TcCgNwMtaNHPfWte-6" value="&lt;font face=&quot;Times New Roman&quot; style=&quot;&quot;&gt;&lt;font style=&quot;&quot;&gt;&lt;span style=&quot;font-size: 14px;&quot;&gt;Business Logic Layer&lt;/span&gt;&lt;br&gt;&lt;/font&gt;&lt;/font&gt;&lt;font style=&quot;font-size: 11px;&quot;&gt;&lt;br&gt;&lt;/font&gt;&lt;font size=&quot;1&quot; face=&quot;Verdana&quot;&gt;Contains logic concerning business, such as registering, login process, chatting and adding friends&lt;/font&gt;" style="html=1;whiteSpace=wrap;fillColor=#0050ef;fontColor=#ffffff;strokeColor=#001DBC;" parent="1" vertex="1">
          <mxGeometry x="2570" y="1020" width="150" height="100" as="geometry" />
        </mxCell>
        <mxCell id="fb62TcCgNwMtaNHPfWte-11" style="edgeStyle=orthogonalEdgeStyle;rounded=0;orthogonalLoop=1;jettySize=auto;html=1;exitX=0.5;exitY=1;exitDx=0;exitDy=0;entryX=0.5;entryY=0;entryDx=0;entryDy=0;" parent="1" source="fb62TcCgNwMtaNHPfWte-9" target="BY-3at06x09aHT966IcW-46" edge="1">
          <mxGeometry relative="1" as="geometry">
            <mxPoint x="1644.9411764705883" y="1700" as="targetPoint" />
          </mxGeometry>
        </mxCell>
        <mxCell id="fb62TcCgNwMtaNHPfWte-13" value="Reads and writes data using SQL" style="edgeLabel;html=1;align=center;verticalAlign=middle;resizable=0;points=[];" parent="fb62TcCgNwMtaNHPfWte-11" vertex="1" connectable="0">
          <mxGeometry x="-0.1032" y="-1" relative="1" as="geometry">
            <mxPoint as="offset" />
          </mxGeometry>
        </mxCell>
        <mxCell id="fb62TcCgNwMtaNHPfWte-9" value="&lt;font face=&quot;Times New Roman&quot; style=&quot;&quot;&gt;&lt;font style=&quot;&quot;&gt;&lt;span style=&quot;font-size: 14px;&quot;&gt;Data Access Layer&lt;/span&gt;&lt;br&gt;&lt;/font&gt;&lt;/font&gt;&lt;font style=&quot;font-size: 11px;&quot;&gt;&lt;br&gt;&lt;/font&gt;&lt;font size=&quot;1&quot; face=&quot;Verdana&quot;&gt;Contains entities and provides interface to call database&lt;/font&gt;" style="html=1;whiteSpace=wrap;fillColor=#0050ef;fontColor=#ffffff;strokeColor=#001DBC;" parent="1" vertex="1">
          <mxGeometry x="2680" y="1169" width="150" height="100" as="geometry" />
        </mxCell>
        <mxCell id="nSQgn-0pH9K7IpQDkio4-1" value="Presentation layer" style="shape=umlFrame;whiteSpace=wrap;html=1;pointerEvents=0;width=80;height=30;" vertex="1" parent="1">
          <mxGeometry x="3940" y="1350" width="680" height="182.5" as="geometry" />
        </mxCell>
      </root>
    </mxGraphModel>
  </diagram>
</mxfile>
